<svg xmlns="http://www.w3.org/2000/svg" viewBox="0 0 322.06 154.14"><defs><style>.cls-1{fill:#dc5950;}</style></defs><title>Asset 4</title><g id="Layer_2" data-name="Layer 2"><g id="Layer_1-2" data-name="Layer 1"><path class="cls-1" d="M29.39,114.89a91.81,91.81,0,0,1,9.16,21.67,39.9,39.9,0,0,1,1.54,9.79,47,47,0,0,1-.64,7.79l13.4-21.35a52.39,52.39,0,0,0,3-4.75l7-11.15c13.87-21.81-1-46.66-2.77-49.42h0L38.5,31.83a89.32,89.32,0,0,1-7.14-14.59C29,10.76,30.61,6.3,32.61,3.55A17.85,17.85,0,0,1,36.5,0a22,22,0,0,0-16,15.6h0c-5.63,15.93,3.94,33.22,6,36.68l5.59,8.65,12.22,19c.52.87,1,1.78,1.54,2.91a35.87,35.87,0,0,1,3.37,28.51l-1.9,6.31s-.22-1.56-.46-3.22a48.62,48.62,0,0,0-1.09-6.53,40,40,0,0,0-2.3-6.8c-.08-.18-.16-.36-.25-.54l-.48-1-.61-1.16L42,97.91c-.28-.49-.57-1-.87-1.46L21.26,65.05l-2.33-3.82a68.59,68.59,0,0,1-8.72-21.7,11.42,11.42,0,0,1,1.09-7.64,8.93,8.93,0,0,1,.58-.95c-6.37,4.52-8.47,9.53-8.47,9.53-.24.43-.47.87-.68,1.33C-5.2,58.43,6.44,78.07,8.65,81.74c.14.23,16.54,26,20.74,33.15"/><path class="cls-1" d="M80.6,103.54l.67-1,3.65-5.68L87.7,92.5c5.76-10.11,5.65-18.13.12-25.88l-5.2-7.3s-5-6.65-6.35-10.17c-1.56-4.38-1.47-7.36-.67-9.41.06-.14.11-.28.18-.41a1.42,1.42,0,0,1,.07-.14,7.51,7.51,0,0,1,5.85-3.87c-6.37-2.25-15.94-.06-18.48,9-2.91,10.38.71,18.54,7.35,28.31l4.12,5.92A15.23,15.23,0,0,1,76,81c6.18,14.62-6.74,40.28-6.74,40.28l.26-.41a.85.85,0,0,0,.09-.14l.27-.4c.13-.21.28-.45.46-.72l.94-1.47.38-.59.29-.45.35-.54.6-.93.76-1.18,2.66-4.14.15-.23,3.5-5.45.68-1"/><path d="M165.58,103.28a11.36,11.36,0,0,0,4.75,1,14.53,14.53,0,0,0,4.58-.64A10.47,10.47,0,0,0,178,102a7.66,7.66,0,0,0,1.91-2.12,11,11,0,0,0,1-2.12,7.39,7.39,0,0,0,.4-1.72c.06-.67.06-.78.06-.79a8.89,8.89,0,0,0-.58-3.38,8.48,8.48,0,0,0-1.45-2.4l0,0a6.87,6.87,0,0,0-1.94-1.54,15.66,15.66,0,0,0-2.07-.9,11.28,11.28,0,0,0-1.82-.46l-1.06-.15L170.18,86a6,6,0,0,1-1.65-.5,2.46,2.46,0,0,1-1-.92,3.19,3.19,0,0,1-.37-1.66,2.63,2.63,0,0,1,1.19-2.3,6,6,0,0,1,3.43-.84,12.36,12.36,0,0,1,2,.22,7.51,7.51,0,0,1,1.57.59,2.77,2.77,0,0,1,1.15,1.07l.14.23,4.53-3.41-.17-.18a11.63,11.63,0,0,0-3.87-2.85,11.35,11.35,0,0,0-4.77-1,15.12,15.12,0,0,0-4.57.6,11.26,11.26,0,0,0-3.11,1.5,7.44,7.44,0,0,0-1.93,2,9.25,9.25,0,0,0-1,2,7.89,7.89,0,0,0-.37,1.62c-.05.53-.06.72-.06.75a7.71,7.71,0,0,0,.54,3,8,8,0,0,0,1.35,2.18,7.44,7.44,0,0,0,1.83,1.5,14,14,0,0,0,1.93.93,10.07,10.07,0,0,0,1.69.53c.67.14.94.18,1,.19.82.16,1.58.32,2.3.49a8.19,8.19,0,0,1,1.83.68,3.31,3.31,0,0,1,1.23,1.11,3.1,3.1,0,0,1,.44,1.73,3.29,3.29,0,0,1-1.21,2.56,5,5,0,0,1-3.42,1.1,6.85,6.85,0,0,1-2.09-.29,7.37,7.37,0,0,1-1.44-.62,3.94,3.94,0,0,1-.83-.63l-.48-.49-4.45,3.36.16.18a11.42,11.42,0,0,0,3.85,2.83"/><polygon points="215.78 85.4 215.78 100.38 221.3 104.59 221.3 74.06 205.87 85.77 190.43 74.06 190.43 104.59 195.95 100.38 195.95 85.4 205.84 92.91 215.78 85.4"/><polygon points="153.95 59.39 138.02 92.69 122.05 59.39 115 59.39 138.02 105.41 161 59.39 153.95 59.39"/><polygon points="322.06 74.42 296.29 74.42 296.29 79.75 306.47 79.75 306.47 104.3 311.98 104.3 311.98 79.75 322.06 79.75 322.06 74.42"/><path d="M250,100.24l2,4.06h6.66L243.09,74.1l-15.5,30.2h6.66l2-4.06Zm-6.9-14.14,4.57,9.36h-9.12Z"/><path d="M285.4,104.3h6.14l-6.76-12.06.44-.15.46-.16h0a6.94,6.94,0,0,0,2.15-1.35,9.24,9.24,0,0,0,2-2.73,9.7,9.7,0,0,0,.92-4.48,10.68,10.68,0,0,0-.37-2.94,8.41,8.41,0,0,0-1-2.2,6.74,6.74,0,0,0-1.4-1.59,11.77,11.77,0,0,0-1.58-1.09,10.34,10.34,0,0,0-4.32-1.12H265.61V104.3h5.51v-12h7.59ZM271.12,86.93V79.79h11.05a3.29,3.29,0,0,1,1.57.44,3.23,3.23,0,0,1,1.08,1,3.71,3.71,0,0,1,.48,2.06,3.82,3.82,0,0,1-.48,2.1,3.17,3.17,0,0,1-2.61,1.49H271.12Z"/></g></g></svg>